<svg id="Layer_1" data-name="Layer 1" xmlns="http://www.w3.org/2000/svg" viewBox="0 0 279.3 53.3"><defs><style>.cls-1{fill:#fff;}</style></defs><path class="cls-1" d="M125.8,26.7c0,10.6-6.5,15.6-14.5,15.6h-4.9V36H111c4.9,0,8.1-2.6,8.1-9.2S116,17,110.8,17c-5,0-8.6,3.1-8.6,9.7V53.3H95.5V11.4h6.7V15h1a11,11,0,0,1,9-4.4C119.6,10.6,125.8,16,125.8,26.7ZM81.5,24,77,23.6c-3.5-.3-5.4-1.3-5.4-3.3,0-2.4,2.4-3.8,5.8-3.8s5.8,1.7,6,4h6.5c-.3-6-4.9-9.7-12.4-9.7s-12.6,4-12.6,9.8c0,4.9,3.1,8,10.1,8.7l4.6.4c2.8.3,4.6.8,4.6,3.5,0,2.4-1.7,4.1-6.3,4.1-4.2,0-6.3-1.9-7-4.5h-7c.7,5.8,5.6,10.4,14,10.4,7.9,0,13-4.2,13-10.3C90.9,27.3,87.3,24.6,81.5,24Zm70.4,8.7a7.59,7.59,0,0,1-7.2,4.3c-4.9,0-8.6-3.2-8.6-10.1,0-6.6,3.4-10.3,8.7-10.3,4.7,0,7.4,2.8,7.6,7.1H140.3v4.9H159V25.4c0-8.9-5.9-14.7-14.3-14.7-7.8,0-15.3,5.3-15.3,16.2s7.5,16.2,15.3,16.2c7.2,0,12.3-4.4,13.8-10.4ZM45.7,10.6c-7.4,0-12.9,3.8-13.5,9.7h7.2c.5-2.2,2.5-3.8,6.3-3.8,4.9,0,6.5,2.6,6.5,5.7V32.8c-2.8,3.1-6,4.6-9.2,4.6s-5.6-1.6-5.6-4.5,1.8-4.5,5.3-4.5h5.4V23.5H42.5c-7.7,0-12,3.8-12,9.7,0,5.5,4.2,9.7,11,9.7a16.23,16.23,0,0,0,9.7-3.4h1v2.6h6.7V21.7C58.9,14,53.7,10.6,45.7,10.6ZM0,42.3H6.7V0H0ZM28.3,11.4H20.1L10.3,24.3v4l10.1,14h8.3l-11.8-16Zm243.4,0-5.5,12.2a47.57,47.57,0,0,0-3,7.8h-1a44.27,44.27,0,0,0-3.1-7.7l-5.4-12.3h-7.4l13,27.8-6.4,14h7.2l19.2-41.8Zm-27,0h-8.2l-9.8,12.9v4l10.1,14h8.3l-11.8-16ZM202.6,24l-4.5-.4c-3.5-.3-5.4-1.3-5.4-3.3,0-2.4,2.4-3.8,5.8-3.8s5.8,1.7,6,4H211c-.3-6-4.9-9.7-12.4-9.7s-12.6,4-12.6,9.8c0,4.9,3.1,8,10.1,8.7l4.6.4c2.8.3,4.6.8,4.6,3.5,0,2.4-1.7,4.1-6.3,4.1-4.2,0-6.3-1.9-7-4.5h-7c.7,5.8,5.6,10.4,14,10.4,7.9,0,13-4.2,13-10.3C211.9,27.3,208.3,24.6,202.6,24Zm13.8,18.3h6.7V0h-6.7ZM172,15h-1V11.4h-6.7V42.3H171V26.2c0-5.5,2.5-8.7,7.6-8.7h4.3V10.7h-2.5C175.8,10.6,173.8,12.4,172,15Z"/></svg>